<svg xmlns="http://www.w3.org/2000/svg" viewBox="0 0 64 64" role="img" aria-label="Android">
  <defs>
    <linearGradient id="androidFill" x1="12" y1="10" x2="53" y2="55" gradientUnits="userSpaceOnUse">
      <stop stop-color="#78F2B1"/>
      <stop offset="0.52" stop-color="#3DDC84"/>
      <stop offset="1" stop-color="#18B86A"/>
    </linearGradient>
    <linearGradient id="androidShine" x1="18" y1="12" x2="43" y2="46" gradientUnits="userSpaceOnUse">
      <stop stop-color="#FFFFFF" stop-opacity="0.48"/>
      <stop offset="1" stop-color="#FFFFFF" stop-opacity="0"/>
    </linearGradient>
  </defs>
  <path d="M21.2 16.6 16.6 9.5M42.8 16.6l4.6-7.1" fill="none" stroke="#3DDC84" stroke-width="4" stroke-linecap="round"/>
  <path d="M10.5 31.2C10.5 19.5 20.1 10 32 10s21.5 9.5 21.5 21.2v11.3C53.5 49.4 47.9 55 41 55H23c-6.9 0-12.5-5.6-12.5-12.5V31.2Z" fill="url(#androidFill)"/>
  <path d="M10.7 31.5h42.6" fill="none" stroke="#087A4B" stroke-opacity="0.42" stroke-width="2"/>
  <path d="M15.2 24.2C18 17.8 24.4 13.3 32 13.3c7.5 0 14 4.5 16.8 10.9" fill="none" stroke="url(#androidShine)" stroke-width="3.2" stroke-linecap="round"/>
  <circle cx="23.6" cy="27" r="2.65" fill="#063C2B"/>
  <circle cx="40.4" cy="27" r="2.65" fill="#063C2B"/>
  <path d="M20.5 45.2c3.2 2.7 7.1 4 11.5 4s8.3-1.3 11.5-4" fill="none" stroke="#087A4B" stroke-opacity="0.38" stroke-width="2.4" stroke-linecap="round"/>
</svg>
